<svg id="Layer_1" data-name="Layer 1" xmlns="http://www.w3.org/2000/svg" viewBox="0 0 128 128"><defs><style>.cls-1{fill:#0f1e64;}</style></defs><title>Artboard 2 copy 27</title><path id="SLIP" class="cls-1" d="M89.43,24.38H74.91l-2-2.05h-18l-2,2H38.34L0,76.77,13.23,86.4,37.31,56.33v44.21l2.56-.67c7.85-2.06,13.67.09,19.83,2.37a50.79,50.79,0,0,0,11.46,3.22,27.42,27.42,0,0,0,3.39.21A29.1,29.1,0,0,0,84.11,104a27.26,27.26,0,0,0,5.06-2.17A4.08,4.08,0,0,0,84,99.69l-2.17.76c-8.3,2.58-14.35.34-20.74-2-5.86-2.17-11.9-4.4-19.72-3.05V88.69H86.27v3.2a4.1,4.1,0,0,0,4.08,3.91v-4h0V56.22l24.14,30.16L128,76.82Zm-18.26,2a7.92,7.92,0,0,1-7.33,6.14,7.93,7.93,0,0,1-7.32-6.12h0ZM86.32,86.63H41.44v-2H86.35Zm0-4.08H41.44v-2H86.35Zm0-4.08H41.44v-2H86.35Zm3.28-30-.15-.21a4,4,0,0,0-3.13-1.51v4.87h0V74.39H41.44V51h0V46.87a4.06,4.06,0,0,0-3.15,1.53,1.09,1.09,0,0,0-.13.17L12.45,80.76l-6.7-4.85L40.4,28.46H52.87a12.8,12.8,0,0,0,3.24,5,11,11,0,0,0,15.48,0,12.6,12.6,0,0,0,3.22-5H87.37L122.22,75.9l-6.91,4.89ZM71,51.52c0,3.82,2.62,6.69,6.11,6.69a5.77,5.77,0,0,0,4.47-2,7,7,0,0,0,1.66-4.65V45.36H71Zm10.21-4.11v4.11a5.09,5.09,0,0,1-1.16,3.32,3.77,3.77,0,0,1-2.94,1.33c-2,0-4.07-1.59-4.07-4.65V47.43Z"/></svg>