<svg id="Layer_1" data-name="Layer 1" xmlns="http://www.w3.org/2000/svg" viewBox="0 0 128 128"><defs><style>.cls-1{fill:#0f1e64;}</style></defs><title>Artboard 2 copy 25</title><path id="SLAP" class="cls-1" d="M127.46,66.75a31.44,31.44,0,0,0,.54-3.86H99.2c-1.87-5.4-9-27-9-27a4.88,4.88,0,0,0-3.1,3h0a6.58,6.58,0,0,0,.22,4c2,6.13,4.57,13.69,6.39,19A99.41,99.41,0,0,1,64,66.15,99.36,99.36,0,0,1,34.3,61.81L44,32.72c6.79-3.34,11.21-1.59,16.75.59,5.35,2.12,11.38,4.5,20,2.2a7.74,7.74,0,0,0,.87-.26,6.39,6.39,0,0,0,2.15-1.15,4.9,4.9,0,0,0,1.58-3.26,5.84,5.84,0,0,0-.3-2.07V28.7a38.77,38.77,0,0,1-4.41,1.73l-.6.19-.21.06c-7.3,2-12.15.12-17.35-1.92-6.08-2.42-12.45-4.92-21.69.09l-.87.46L26.71,69.22l2.18.87c10.15,3.92,22.32,6,35.19,6s25-2.07,35.13-6l2.21-.87-.51-1.44h21.23a33.71,33.71,0,0,1-7.93,13A46.83,46.83,0,0,1,96.74,92c-9,3.47-19.95,5.2-32.62,5.2H64c-12.47,0-23.33-1.73-32.28-5.12A47.93,47.93,0,0,1,14.23,81a35.81,35.81,0,0,1-7.43-11c-.35-.83-.62-1.57-.87-2.23H18.84a4.9,4.9,0,0,0,4.86-4.9H0a35.3,35.3,0,0,0,.55,3.69h0a37.6,37.6,0,0,0,9.9,17.57,52.55,52.55,0,0,0,19.3,12.33c9.54,3.66,21.08,5.52,34.27,5.53h.08c13.25,0,24.82-1.85,34.37-5.5a51.93,51.93,0,0,0,19.27-12.38,38,38,0,0,0,9.54-16.58h0C127.35,67.33,127.4,67.05,127.46,66.75ZM64,71.16A96.28,96.28,0,0,1,32.79,66.3l.7-2.1A102.15,102.15,0,0,0,64,68.65a101.83,101.83,0,0,0,30.47-4.42c.27.8.52,1.51.72,2.12A96.3,96.3,0,0,1,64,71.16Z"/></svg>