<svg id="Layer_1" data-name="Layer 1" xmlns="http://www.w3.org/2000/svg" viewBox="0 0 128 128"><defs><style>.cls-1{fill:#0f1e64;}</style></defs><title>Artboard 2 copy 24</title><path id="SEEK" class="cls-1" d="M119.51,32.59h0a5,5,0,0,0-1.11-.5A5.79,5.79,0,0,0,117,31.8h-.68a13.44,13.44,0,0,0-1.9.19h0c-.45.08-.88.17-1.31.27A30.55,30.55,0,0,0,93.32,46.48,84.76,84.76,0,0,0,76.9,23.58c-7.27-7.12-15-11.82-22.69-13.8A60.93,60.93,0,0,1,84.39,8.12a61.55,61.55,0,0,1,30,15.42,6.29,6.29,0,0,0,8.88.17l0,0c-.1-.1-2.38-2.59-4.3-4.45a.67.67,0,0,0-.15-.14,1,1,0,0,0-.18-.18,10.6,10.6,0,0,0-1.12-1h0A67.69,67.69,0,0,0,49.25,4.78L48.14,2A3.14,3.14,0,1,0,42.31,4.3h0l1.11,2.89A67.75,67.75,0,0,0,6.28,83a3.59,3.59,0,0,0,3,2.79,5.42,5.42,0,0,0,.57,0,3.6,3.6,0,0,0,3.1-1.8,24.47,24.47,0,0,1,31.21-9.85l2.69,1.22L48.2,72.8A37.7,37.7,0,0,1,63.55,57.45l26.7,66.64.06.13a6.28,6.28,0,0,0,8.07,3.34l-2.3-5.77h0L69.38,55A37.58,37.58,0,0,1,93.05,55l2.81.92L97,53.14a24.29,24.29,0,0,1,13.59-13.62l.55-.2a33.45,33.45,0,0,1,11.51-1.39A6.29,6.29,0,0,0,119.51,32.59ZM35,65.77a30.81,30.81,0,0,0-23.58,9.88A61.39,61.39,0,0,1,44.11,13.91,49,49,0,0,0,36.7,37a69.7,69.7,0,0,0,4.65,29.7A29.44,29.44,0,0,0,35,65.77Zm30-15.84A43.91,43.91,0,0,0,44.7,66.61a66.65,66.65,0,0,1-4.85-29.38,44.55,44.55,0,0,1,9.51-25.15c6.06.74,15.12,3.79,25.33,13.78A81.44,81.44,0,0,1,90.42,47.75a43.94,43.94,0,0,0-25.35,2.18Z"/></svg>