<svg id="Layer_1" data-name="Layer 1" xmlns="http://www.w3.org/2000/svg" viewBox="0 0 128 128"><defs><style>.cls-1{fill:#0f1e64;}</style></defs><title>Artboard 2 copy 26</title><path id="SLIDE" class="cls-1" d="M36.19,62.32a1.22,1.22,0,0,1,0,1.73h0l-4.72,4.71A1.23,1.23,0,0,1,29.73,67l4.71-4.71a1.22,1.22,0,0,1,1.72,0Zm61.86.24-4.68,4.69a1.22,1.22,0,0,0,0,1.73,1.24,1.24,0,0,0,.87.36A1.23,1.23,0,0,0,95.1,69l4.72-4.72a1.23,1.23,0,0,0-1.74-1.73ZM102,53.44a1.22,1.22,0,0,0-1.73,0h0L84.63,69.05a1.22,1.22,0,0,0,0,1.73h0a1.23,1.23,0,0,0,1.73,0h0L102,55.18a1.22,1.22,0,0,0,0-1.72Zm-63.83,0a1.22,1.22,0,0,0-1.73,0h0L20.8,69.05a1.23,1.23,0,0,0,0,1.74,1.25,1.25,0,0,0,1.74,0L38.15,55.18a1.22,1.22,0,0,0,0-1.73S38.16,53.44,38.15,53.44Zm88-9.22c-7.3-2.1-17.44-3-28.54-2.51-9.27.4-18.43,1.73-23.89,3.47l-1.82.6a43.05,43.05,0,0,1-7.76,2,11.9,11.9,0,0,1-3-.11h-.19a1.83,1.83,0,0,1-.55-.1h0a56.17,56.17,0,0,1-6.23-1.81l-1.82-.6c-4.9-1.56-12.82-2.82-21.18-3.34-6.86-.43-17-.57-26.33,1.21C3,43.4,0,44.22,0,44.22a4.86,4.86,0,0,0,3,3.46A5.7,5.7,0,0,0,5.31,48a1.44,1.44,0,0,0,.53-.07h.37c1-.16,2.64-.43,3.77-.58a114,114,0,0,1,20.81-.47c7.87.5,15.53,1.74,20,3.13l1.73.58c3.26,1.07,6.94,2.3,10.41,2.39h.13c3.41-.09,7.11-1.32,10.4-2.39L75.21,50c5-1.61,13.87-2.88,22.62-3.27,9.68-.42,18.51.24,25.15,1.85l-.09,3.9-.27.08a6.4,6.4,0,0,0-4,4.15c-.23.73-.49,1.84-.82,3.25-1,4.4-3,12.59-5.71,15.91-1.84,2.23-4.93,3.82-9.18,4.75a48.85,48.85,0,0,1-11.7.87c-8.45-.25-14.51-3.83-17.06-10.09-.44-1.08-.87-2.09-1.25-3.07-2.26-5.61-3.62-9-5.44-10.89a6.25,6.25,0,0,0-4.44-2h0a6.2,6.2,0,0,0-4.44,2c-1.82,1.9-3.19,5.27-5.44,10.87l-1.25,3.08c-2.6,6.26-8.62,9.84-17.07,10.09a48.85,48.85,0,0,1-11.7-.87c-4.24-.93-7.33-2.52-9.18-4.75h0c-1.89-2.29-4.57-9.6-6.83-18.66a4.87,4.87,0,0,0-5.79-3.74h0s.53,2.6,1,4.6c.07.32.15.63.21.91l.11.41h0C4,64.7,7,75.07,10.17,79h0c2.6,3.09,6.57,5.25,11.91,6.41a53.61,53.61,0,0,0,12.89,1,26.7,26.7,0,0,0,13.47-3.7,20,20,0,0,0,8-9.42l1.26-3.11c1.82-4.52,3.26-8.1,4.43-9.32a1.13,1.13,0,0,1,1.89,0c1.16,1.22,2.6,4.8,4.43,9.32.4,1,.81,2,1.25,3.11a20,20,0,0,0,8,9.42,26.76,26.76,0,0,0,13.48,3.7H93.3a50.8,50.8,0,0,0,10.72-1c5.3-1.24,9.29-3.35,11.89-6.48,3.47-4.21,5.5-12.79,6.71-17.92.22-.93.42-1.73.58-2.38a2.66,2.66,0,0,1,.33-.8,2.15,2.15,0,0,1,1.14-.87H125a9.46,9.46,0,0,1,2.71.09L128,44.84Z"/></svg>